<svg width="299" height="60" viewBox="0 0 299 60" fill="none" xmlns="http://www.w3.org/2000/svg">
<g clip-path="url(#clip0)">
<path d="M86.72 12.46H79.9V15.26H85.34V17.92H79.9V23H76.46V9.8H86.72V12.46ZM92.23 12.8C93.2833 12.8 94.2033 13.0067 94.99 13.42C95.79 13.8333 96.41 14.4267 96.85 15.2C97.3033 15.9733 97.53 16.9067 97.53 18C97.53 19.0933 97.3033 20.0267 96.85 20.8C96.41 21.5733 95.79 22.1667 94.99 22.58C94.2033 22.9933 93.2833 23.2 92.23 23.2C91.19 23.2 90.27 22.9933 89.47 22.58C88.6833 22.1667 88.0633 21.5733 87.61 20.8C87.17 20.0267 86.95 19.0933 86.95 18C86.95 16.9067 87.17 15.9733 87.61 15.2C88.0633 14.4267 88.6833 13.8333 89.47 13.42C90.27 13.0067 91.19 12.8 92.23 12.8ZM92.23 15.22C91.6433 15.22 91.1833 15.44 90.85 15.88C90.53 16.3067 90.37 17.0133 90.37 18C90.37 18.9733 90.53 19.68 90.85 20.12C91.1833 20.56 91.6433 20.78 92.23 20.78C92.83 20.78 93.29 20.56 93.61 20.12C93.9433 19.68 94.11 18.9733 94.11 18C94.11 17.0133 93.9433 16.3067 93.61 15.88C93.29 15.44 92.83 15.22 92.23 15.22ZM102.823 23.2C101.809 23.2 100.983 22.9267 100.343 22.38C99.7027 21.8333 99.3827 20.9333 99.3827 19.68V13H102.783V18.88C102.783 19.52 102.909 19.9667 103.163 20.22C103.416 20.4733 103.776 20.6 104.243 20.6C104.723 20.6 105.129 20.4267 105.463 20.08C105.809 19.72 105.983 19.1467 105.983 18.36V13H109.383V23H106.343L106.243 21.12C105.923 21.8267 105.476 22.3533 104.903 22.7C104.329 23.0333 103.636 23.2 102.823 23.2ZM111.825 23V13H114.865L114.965 15.02C115.272 14.2867 115.719 13.7333 116.305 13.36C116.892 12.9867 117.585 12.8 118.385 12.8C119.412 12.8 120.245 13.1 120.885 13.7C121.525 14.3 121.845 15.18 121.845 16.34V23H118.445V17.24C118.445 16.5467 118.312 16.0667 118.045 15.8C117.779 15.5333 117.439 15.4 117.025 15.4C116.532 15.4 116.105 15.5733 115.745 15.92C115.399 16.2667 115.225 16.86 115.225 17.7V23H111.825ZM127.908 23.2C126.668 23.2 125.668 22.7467 124.908 21.84C124.161 20.9333 123.788 19.6667 123.788 18.04C123.788 16.92 123.961 15.9733 124.308 15.2C124.668 14.4133 125.161 13.82 125.788 13.42C126.428 13.0067 127.161 12.8 127.988 12.8C128.694 12.8 129.294 12.9733 129.788 13.32C130.294 13.6667 130.674 14.1267 130.928 14.7V8.76H134.328V23H131.288L131.168 21.04C130.888 21.7067 130.461 22.2333 129.888 22.62C129.328 23.0067 128.668 23.2 127.908 23.2ZM129.088 20.7C129.648 20.7 130.094 20.4667 130.428 20C130.761 19.5333 130.928 18.8467 130.928 17.94C130.928 17.1 130.768 16.4533 130.448 16C130.128 15.5333 129.681 15.3 129.108 15.3C128.521 15.3 128.054 15.52 127.708 15.96C127.374 16.3867 127.208 17.0667 127.208 18C127.208 18.9333 127.374 19.62 127.708 20.06C128.041 20.4867 128.501 20.7 129.088 20.7ZM142.347 16.66C142.347 16.1933 142.214 15.8267 141.947 15.56C141.694 15.28 141.347 15.14 140.907 15.14C140.467 15.14 140.087 15.2533 139.767 15.48C139.46 15.6933 139.247 16.08 139.127 16.64L136.247 15.96C136.434 15 136.927 14.2333 137.727 13.66C138.527 13.0867 139.654 12.8 141.107 12.8C142.574 12.8 143.707 13.1267 144.507 13.78C145.32 14.42 145.727 15.36 145.727 16.6V20.26C145.727 20.78 145.96 21.04 146.427 21.04C146.667 21.04 146.86 21.0133 147.007 20.96L146.807 22.9C146.407 23.0867 145.92 23.18 145.347 23.18C144.72 23.18 144.18 23.06 143.727 22.82C143.274 22.5667 142.967 22.1867 142.807 21.68C142.527 22.2 142.08 22.5867 141.467 22.84C140.867 23.08 140.227 23.2 139.547 23.2C138.52 23.2 137.7 22.9667 137.087 22.5C136.487 22.02 136.187 21.3333 136.187 20.44C136.187 19.72 136.4 19.1267 136.827 18.66C137.267 18.18 137.954 17.8467 138.887 17.66L142.347 16.94V16.66ZM139.547 20.12C139.547 20.4133 139.654 20.6333 139.867 20.78C140.08 20.9267 140.334 21 140.627 21C141.08 21 141.48 20.8667 141.827 20.6C142.174 20.32 142.347 19.8867 142.347 19.3V18.74L140.727 19.08C140.327 19.16 140.027 19.28 139.827 19.44C139.64 19.5867 139.547 19.8133 139.547 20.12ZM155.118 13V15.42H152.138V19.44C152.138 19.92 152.252 20.2667 152.478 20.48C152.718 20.68 153.045 20.78 153.458 20.78C153.778 20.78 154.052 20.7467 154.278 20.68C154.505 20.6 154.718 20.4867 154.918 20.34L155.278 22.44C154.945 22.6667 154.518 22.8533 153.998 23C153.492 23.1333 152.978 23.2 152.458 23.2C151.312 23.2 150.405 22.96 149.738 22.48C149.085 21.9867 148.752 21.16 148.738 20V15.42H147.018V13H148.738V10.76L152.138 9.82V13H155.118ZM158.389 11.84C157.695 11.84 157.189 11.7133 156.869 11.46C156.562 11.1933 156.409 10.78 156.409 10.22C156.409 9.64667 156.562 9.23333 156.869 8.98C157.189 8.71333 157.695 8.58 158.389 8.58C159.069 8.58 159.569 8.71333 159.889 8.98C160.209 9.23333 160.369 9.64667 160.369 10.22C160.369 10.78 160.209 11.1933 159.889 11.46C159.569 11.7133 159.069 11.84 158.389 11.84ZM160.089 13V23H156.689V13H160.089ZM167.269 12.8C168.322 12.8 169.242 13.0067 170.029 13.42C170.829 13.8333 171.449 14.4267 171.889 15.2C172.342 15.9733 172.569 16.9067 172.569 18C172.569 19.0933 172.342 20.0267 171.889 20.8C171.449 21.5733 170.829 22.1667 170.029 22.58C169.242 22.9933 168.322 23.2 167.269 23.2C166.229 23.2 165.309 22.9933 164.509 22.58C163.722 22.1667 163.102 21.5733 162.649 20.8C162.209 20.0267 161.989 19.0933 161.989 18C161.989 16.9067 162.209 15.9733 162.649 15.2C163.102 14.4267 163.722 13.8333 164.509 13.42C165.309 13.0067 166.229 12.8 167.269 12.8ZM167.269 15.22C166.682 15.22 166.222 15.44 165.889 15.88C165.569 16.3067 165.409 17.0133 165.409 18C165.409 18.9733 165.569 19.68 165.889 20.12C166.222 20.56 166.682 20.78 167.269 20.78C167.869 20.78 168.329 20.56 168.649 20.12C168.982 19.68 169.149 18.9733 169.149 18C169.149 17.0133 168.982 16.3067 168.649 15.88C168.329 15.44 167.869 15.22 167.269 15.22ZM174.482 23V13H177.522L177.622 15.02C177.928 14.2867 178.375 13.7333 178.962 13.36C179.548 12.9867 180.242 12.8 181.042 12.8C182.068 12.8 182.902 13.1 183.542 13.7C184.182 14.3 184.502 15.18 184.502 16.34V23H181.102V17.24C181.102 16.5467 180.968 16.0667 180.702 15.8C180.435 15.5333 180.095 15.4 179.682 15.4C179.188 15.4 178.762 15.5733 178.402 15.92C178.055 16.2667 177.882 16.86 177.882 17.7V23H174.482Z" fill="#2B292D"/>
<path d="M80.76 35.94C78.006 35.94 76.332 37.56 76.332 39.468C76.332 41.286 77.484 42.258 80.688 42.816C83.19 43.248 83.964 43.842 83.964 44.868C83.964 46.146 82.74 46.83 80.904 46.83C78.96 46.83 77.736 45.966 77.106 44.598L75.864 45.606C76.692 47.082 78.348 48.18 80.868 48.18C83.64 48.18 85.458 46.83 85.458 44.796C85.458 42.96 84.324 41.952 81.138 41.412C78.636 40.98 77.844 40.422 77.844 39.306C77.844 38.172 78.888 37.29 80.778 37.29C82.524 37.29 83.388 37.902 84.108 39.468L85.35 38.46C84.432 36.804 82.938 35.94 80.76 35.94ZM93.2093 46.164C92.7953 46.578 92.3273 46.83 91.6793 46.83C90.8873 46.83 90.3293 46.398 90.3293 45.516V40.242H93.6593V39H90.3293V36.444L88.8893 36.84V39H87.0893V40.242H88.8893V45.768C88.9072 47.514 90.0593 48.18 91.3913 48.18C92.3813 48.18 93.1553 47.874 93.7133 47.37L93.2093 46.164ZM103.126 46.956C102.622 46.956 102.442 46.74 102.442 46.308V41.88C102.442 39.792 100.948 38.82 98.8963 38.82C97.1503 38.82 95.7283 39.684 95.2603 41.016L96.3223 41.79C96.8083 40.656 97.7083 40.08 98.8963 40.08C100.246 40.08 101.002 40.872 101.002 42.06V42.564L98.6083 42.96C96.2863 43.356 95.0983 44.418 95.0983 45.768C95.0983 47.388 96.4663 48.18 98.1583 48.18C99.3103 48.18 100.48 47.694 101.056 46.848C101.218 47.856 101.794 48.18 102.676 48.18C103.126 48.18 103.504 48.09 103.756 48L103.846 46.866C103.63 46.92 103.36 46.956 103.126 46.956ZM98.2303 46.92C97.2043 46.92 96.5923 46.524 96.5923 45.768C96.5923 44.922 97.4023 44.4 98.9863 44.112L101.002 43.734V44.976C101.002 46.164 99.6703 46.92 98.2303 46.92ZM110.19 38.82C108.786 38.82 107.814 39.378 107.31 40.476L107.112 39H105.942V48H107.382V43.14C107.382 41.124 108.678 40.17 109.758 40.17C110.226 40.17 110.622 40.26 110.892 40.404L111.18 39C110.91 38.856 110.496 38.82 110.19 38.82ZM117.748 46.164C117.334 46.578 116.866 46.83 116.218 46.83C115.426 46.83 114.868 46.398 114.868 45.516V40.242H118.198V39H114.868V36.444L113.428 36.84V39H111.628V40.242H113.428V45.768C113.446 47.514 114.598 48.18 115.93 48.18C116.92 48.18 117.694 47.874 118.252 47.37L117.748 46.164ZM126.639 39V43.896C126.639 46.02 125.289 46.92 123.759 46.92C122.463 46.92 121.635 46.362 121.635 44.508V39H120.195V44.886C120.195 47.262 121.725 48.18 123.507 48.18C124.947 48.18 126.099 47.712 126.729 46.632L126.819 48H128.079V39H126.639ZM135.858 38.82C134.436 38.82 133.302 39.54 132.78 40.566L132.69 39H131.43V51.78H132.87V46.596C133.428 47.532 134.508 48.18 135.858 48.18C138.36 48.18 139.962 46.434 139.962 43.5C139.962 40.566 138.36 38.82 135.858 38.82ZM135.696 46.92C133.986 46.92 132.87 45.642 132.87 43.608V43.392C132.87 41.358 133.986 40.08 135.696 40.08C137.46 40.08 138.522 41.412 138.522 43.5C138.522 45.588 137.46 46.92 135.696 46.92ZM150.271 34.86H148.831V45.768C148.831 47.406 149.533 48.18 150.991 48.18C151.459 48.18 151.945 48.09 152.323 47.928L152.557 46.542C152.035 46.74 151.729 46.794 151.243 46.794C150.505 46.794 150.271 46.506 150.271 45.588V34.86ZM161.784 46.956C161.28 46.956 161.1 46.74 161.1 46.308V41.88C161.1 39.792 159.606 38.82 157.554 38.82C155.808 38.82 154.386 39.684 153.918 41.016L154.98 41.79C155.466 40.656 156.366 40.08 157.554 40.08C158.904 40.08 159.66 40.872 159.66 42.06V42.564L157.266 42.96C154.944 43.356 153.756 44.418 153.756 45.768C153.756 47.388 155.124 48.18 156.816 48.18C157.968 48.18 159.138 47.694 159.714 46.848C159.876 47.856 160.452 48.18 161.334 48.18C161.784 48.18 162.162 48.09 162.414 48L162.504 46.866C162.288 46.92 162.018 46.956 161.784 46.956ZM156.888 46.92C155.862 46.92 155.25 46.524 155.25 45.768C155.25 44.922 156.06 44.4 157.644 44.112L159.66 43.734V44.976C159.66 46.164 158.328 46.92 156.888 46.92ZM168.974 38.82C167.732 38.82 166.58 39.27 165.95 40.404L165.86 39H164.6V48H166.04V43.212C166.04 40.908 167.516 40.08 168.83 40.08C170.072 40.08 171.044 40.746 171.044 42.744V48H172.484V42.24C172.484 39.918 170.9 38.82 168.974 38.82ZM182.296 34.86V40.404C181.738 39.468 180.658 38.82 179.308 38.82C176.806 38.82 175.204 40.566 175.204 43.5C175.204 46.434 176.806 48.18 179.308 48.18C180.73 48.18 181.864 47.46 182.386 46.434L182.476 48H183.736V34.86H182.296ZM179.47 46.92C177.706 46.92 176.644 45.588 176.644 43.5C176.644 41.412 177.706 40.08 179.47 40.08C181.18 40.08 182.296 41.358 182.296 43.392V43.608C182.296 45.642 181.18 46.92 179.47 46.92ZM187.802 37.272C188.45 37.272 188.882 36.84 188.882 36.192C188.882 35.544 188.45 35.112 187.802 35.112C187.154 35.112 186.722 35.544 186.722 36.192C186.722 36.84 187.154 37.272 187.802 37.272ZM188.522 39H187.082V48H188.522V39ZM196.237 38.82C194.995 38.82 193.843 39.27 193.213 40.404L193.123 39H191.863V48H193.303V43.212C193.303 40.908 194.779 40.08 196.093 40.08C197.335 40.08 198.307 40.746 198.307 42.744V48H199.747V42.24C199.747 39.918 198.163 38.82 196.237 38.82ZM208.03 46.848H205.042C204.34 46.848 203.854 46.506 203.854 45.876C203.854 45.264 204.142 44.904 204.862 44.742C205.258 44.85 205.726 44.904 206.248 44.904C208.408 44.904 209.938 43.644 209.938 41.862C209.938 40.926 209.524 40.134 208.804 39.594C209.056 38.946 209.74 38.604 210.946 38.604L210.622 37.344C209.272 37.344 208.426 37.938 208.084 39.18C207.544 38.946 206.932 38.82 206.248 38.82C204.088 38.82 202.558 40.08 202.558 41.862C202.558 42.906 203.008 43.788 203.872 44.328C203.08 44.598 202.522 45.156 202.522 46.092C202.522 46.884 203.062 47.424 203.746 47.748C202.756 48.018 202.162 48.666 202.162 49.494C202.162 50.844 203.458 51.87 206.302 51.87C208.732 51.87 210.748 50.772 210.748 48.99C210.748 47.694 209.74 46.848 208.03 46.848ZM206.248 39.99C207.49 39.99 208.444 40.746 208.444 41.862C208.444 42.978 207.49 43.734 206.248 43.734C205.006 43.734 204.052 42.978 204.052 41.862C204.052 40.746 205.006 39.99 206.248 39.99ZM206.464 50.664C204.484 50.664 203.494 50.088 203.494 49.206C203.494 48.522 204.088 48.09 205.222 48.09H207.634C208.984 48.09 209.416 48.504 209.416 49.152C209.416 49.944 208.372 50.664 206.464 50.664ZM223.674 46.164C223.26 46.578 222.792 46.83 222.144 46.83C221.352 46.83 220.794 46.398 220.794 45.516V40.242H224.124V39H220.794V36.444L219.354 36.84V39H217.554V40.242H219.354V45.768C219.372 47.514 220.524 48.18 221.856 48.18C222.846 48.18 223.62 47.874 224.178 47.37L223.674 46.164ZM233.933 43.032C233.933 40.71 232.511 38.82 229.901 38.82C227.183 38.82 225.653 40.584 225.653 43.5C225.653 46.416 227.291 48.18 230.009 48.18C231.953 48.18 233.069 47.442 233.753 46.218L232.547 45.588C232.223 46.452 231.323 46.92 230.009 46.92C228.353 46.92 227.255 45.858 227.075 44.04H233.861C233.897 43.788 233.933 43.446 233.933 43.032ZM229.901 40.08C231.431 40.08 232.349 41.106 232.547 42.762H227.093C227.309 41.07 228.299 40.08 229.901 40.08ZM247.128 38.82C245.994 38.82 244.554 39.36 243.996 40.584C243.402 39.378 242.16 38.82 240.9 38.82C239.784 38.82 238.668 39.306 238.02 40.404L237.93 39H236.67V48H238.11V43.194C238.11 40.962 239.586 40.08 240.774 40.08C241.962 40.08 242.898 40.746 242.898 42.384V48H244.338V43.068C244.338 41.142 245.598 40.08 247.002 40.08C248.19 40.08 249.126 40.746 249.126 42.384V48H250.566V42.24C250.566 39.864 248.856 38.82 247.128 38.82ZM258.254 38.82C256.832 38.82 255.698 39.54 255.176 40.566L255.086 39H253.826V51.78H255.266V46.596C255.824 47.532 256.904 48.18 258.254 48.18C260.756 48.18 262.358 46.434 262.358 43.5C262.358 40.566 260.756 38.82 258.254 38.82ZM258.092 46.92C256.382 46.92 255.266 45.642 255.266 43.608V43.392C255.266 41.358 256.382 40.08 258.092 40.08C259.856 40.08 260.918 41.412 260.918 43.5C260.918 45.588 259.856 46.92 258.092 46.92ZM266.532 34.86H265.092V45.768C265.092 47.406 265.794 48.18 267.252 48.18C267.72 48.18 268.206 48.09 268.584 47.928L268.818 46.542C268.296 46.74 267.99 46.794 267.504 46.794C266.766 46.794 266.532 46.506 266.532 45.588V34.86ZM278.046 46.956C277.542 46.956 277.362 46.74 277.362 46.308V41.88C277.362 39.792 275.868 38.82 273.816 38.82C272.07 38.82 270.648 39.684 270.18 41.016L271.242 41.79C271.728 40.656 272.628 40.08 273.816 40.08C275.166 40.08 275.922 40.872 275.922 42.06V42.564L273.528 42.96C271.206 43.356 270.018 44.418 270.018 45.768C270.018 47.388 271.386 48.18 273.078 48.18C274.23 48.18 275.4 47.694 275.976 46.848C276.138 47.856 276.714 48.18 277.596 48.18C278.046 48.18 278.424 48.09 278.676 48L278.766 46.866C278.55 46.92 278.28 46.956 278.046 46.956ZM273.15 46.92C272.124 46.92 271.512 46.524 271.512 45.768C271.512 44.922 272.322 44.4 273.906 44.112L275.922 43.734V44.976C275.922 46.164 274.59 46.92 273.15 46.92ZM285.514 46.164C285.1 46.578 284.632 46.83 283.984 46.83C283.192 46.83 282.634 46.398 282.634 45.516V40.242H285.964V39H282.634V36.444L281.194 36.84V39H279.394V40.242H281.194V45.768C281.212 47.514 282.364 48.18 283.696 48.18C284.686 48.18 285.46 47.874 286.018 47.37L285.514 46.164ZM295.773 43.032C295.773 40.71 294.351 38.82 291.741 38.82C289.023 38.82 287.493 40.584 287.493 43.5C287.493 46.416 289.131 48.18 291.849 48.18C293.793 48.18 294.909 47.442 295.593 46.218L294.387 45.588C294.063 46.452 293.163 46.92 291.849 46.92C290.193 46.92 289.095 45.858 288.915 44.04H295.701C295.737 43.788 295.773 43.446 295.773 43.032ZM291.741 40.08C293.271 40.08 294.189 41.106 294.387 42.762H288.933C289.149 41.07 290.139 40.08 291.741 40.08Z" fill="#2B292D" fill-opacity="0.6"/>
<g filter="url(#filter0_ddi)">
<rect width="60" height="60" rx="14" fill="white"/>
<rect width="60" height="60" rx="14" fill="url(#paint0_linear)" fill-opacity="0.1" style="mix-blend-mode:overlay"/>
</g>
<path fill-rule="evenodd" clip-rule="evenodd" d="M17.8077 27.0655V25.8014C17.8077 25.4568 18.0943 25.1694 18.4479 25.1694H42.5521C42.9072 25.1694 43.1923 25.4523 43.1923 25.8014V27.0655C40.918 27.0659 38.8765 28.0591 37.481 29.6335C36.0854 28.0586 34.0432 27.0655 31.7678 27.0655H29.2322C26.9575 27.0655 24.9156 28.0585 23.5199 29.633C22.1242 28.0585 20.0823 27.0655 17.8077 27.0655ZM45.7308 23.2732H15.2692C14.5683 23.2732 14 22.7072 14 22.0091V11.2641C14 10.566 14.5683 10 15.2692 10H20.9808C21.6817 10 22.25 10.566 22.25 11.2641V15.0565H25.4231V11.2641C25.4231 10.566 25.9913 10 26.6923 10H34.3077C35.0087 10 35.5769 10.566 35.5769 11.2641V15.0565H38.75V11.2641C38.75 10.566 39.3183 10 40.0192 10H45.7308C46.4317 10 47 10.566 47 11.2641V22.0091C47 22.7072 46.4317 23.2732 45.7308 23.2732ZM37.481 32.3524C38.8456 30.3087 41.1791 28.9617 43.8283 28.9617C44.5293 28.9617 45.0975 29.5277 45.0975 30.2258V49.1875C45.0975 49.8857 44.5293 50.4516 43.8283 50.4516H37.4808C36.7798 50.4516 36.2115 49.8857 36.2115 49.1875V36.5464C36.2115 33.753 33.9385 31.4899 31.1332 31.4899H29.8668C27.0622 31.4899 24.7885 33.7539 24.7885 36.5464V49.1875C24.7885 49.8851 24.2211 50.4507 23.521 50.4516L23.5206 50.4516H17.1731C16.4721 50.4516 15.9038 49.8857 15.9038 49.1875V30.2258C15.9038 29.5277 16.4721 28.9617 17.1731 28.9617C19.822 28.9617 22.1552 30.3084 23.5199 32.3517C24.8846 30.3084 27.2179 28.9617 29.8668 28.9617H31.1332C33.783 28.9617 36.1165 30.3085 37.481 32.3524ZM38.75 44.0746L42.4131 41.237C42.4601 41.2006 42.5089 41.168 42.5591 41.1391V38.0064L38.75 40.9571V44.0746ZM38.75 37.7542L42.4131 34.9165C42.4601 34.8801 42.5089 34.8475 42.5591 34.8187V31.6163C42.5591 31.6163 42.0069 31.7446 41.2515 32.1884C39.7544 33.0679 38.75 34.6904 38.75 36.5464V37.7542ZM38.75 47.2775V47.9234H42.5591V44.3269L38.75 47.2775ZM18.4423 41.1399C18.492 41.1686 18.5403 41.201 18.5869 41.237L22.2514 44.0757V40.9581L18.4423 38.0074V41.1399ZM18.4423 34.8194C18.492 34.8481 18.5404 34.8804 18.587 34.9165L22.2514 37.7551V36.5464C22.2514 34.1861 20.627 32.2034 18.4423 31.6462V34.8194ZM18.4423 44.3279V47.9234H22.2514V47.2786L18.4423 44.3279Z" fill="url(#paint1_linear)"/>
</g>
<defs>
<filter id="filter0_ddi" x="-6" y="-2" width="72" height="72" filterUnits="userSpaceOnUse" color-interpolation-filters="sRGB">
<feFlood flood-opacity="0" result="BackgroundImageFix"/>
<feColorMatrix in="SourceAlpha" type="matrix" values="0 0 0 0 0 0 0 0 0 0 0 0 0 0 0 0 0 0 127 0"/>
<feOffset dy="4"/>
<feGaussianBlur stdDeviation="3"/>
<feColorMatrix type="matrix" values="0 0 0 0 0 0 0 0 0 0 0 0 0 0 0 0 0 0 0.05 0"/>
<feBlend mode="normal" in2="BackgroundImageFix" result="effect1_dropShadow"/>
<feColorMatrix in="SourceAlpha" type="matrix" values="0 0 0 0 0 0 0 0 0 0 0 0 0 0 0 0 0 0 127 0"/>
<feOffset dy="1"/>
<feGaussianBlur stdDeviation="1.5"/>
<feColorMatrix type="matrix" values="0 0 0 0 0 0 0 0 0 0 0 0 0 0 0 0 0 0 0.1 0"/>
<feBlend mode="normal" in2="effect1_dropShadow" result="effect2_dropShadow"/>
<feBlend mode="normal" in="SourceGraphic" in2="effect2_dropShadow" result="shape"/>
<feColorMatrix in="SourceAlpha" type="matrix" values="0 0 0 0 0 0 0 0 0 0 0 0 0 0 0 0 0 0 127 0" result="hardAlpha"/>
<feOffset dy="1"/>
<feComposite in2="hardAlpha" operator="arithmetic" k2="-1" k3="1"/>
<feColorMatrix type="matrix" values="0 0 0 0 1 0 0 0 0 1 0 0 0 0 1 0 0 0 0.1 0"/>
<feBlend mode="normal" in2="shape" result="effect3_innerShadow"/>
</filter>
<linearGradient id="paint0_linear" x1="0" y1="0" x2="0" y2="60" gradientUnits="userSpaceOnUse">
<stop stop-color="white" stop-opacity="0.5"/>
<stop offset="1" stop-color="white" stop-opacity="0.01"/>
</linearGradient>
<linearGradient id="paint1_linear" x1="0.31875" y1="28.4982" x2="37.2213" y2="61.4145" gradientUnits="userSpaceOnUse">
<stop stop-color="#3142C6"/>
<stop offset="1" stop-color="#AF61D1"/>
</linearGradient>
<clipPath id="clip0">
<rect width="299" height="60" fill="white"/>
</clipPath>
</defs>
</svg>
